<svg id="visual" viewBox="0 0 1800 900" width="1800" height="900" xmlns="http://www.w3.org/2000/svg" xmlns:xlink="http://www.w3.org/1999/xlink" version="1.1"><rect x="0" y="0" width="1800" height="900" fill="#2D3748"></rect><path d="M0 821L23 804.7C46 788.3 92 755.7 138.2 740.8C184.3 726 230.7 729 276.8 727.5C323 726 369 720 415.2 728.2C461.3 736.3 507.7 758.7 553.8 772C600 785.3 646 789.7 692.2 798.3C738.3 807 784.7 820 830.8 822C877 824 923 815 969.2 803.2C1015.3 791.3 1061.7 776.7 1107.8 772.8C1154 769 1200 776 1246.2 785.8C1292.3 795.7 1338.7 808.3 1384.8 813C1431 817.7 1477 814.3 1523.2 797C1569.3 779.7 1615.7 748.3 1661.8 736C1708 723.7 1754 730.3 1777 733.7L1800 737L1800 0L1777 0C1754 0 1708 0 1661.8 0C1615.7 0 1569.3 0 1523.2 0C1477 0 1431 0 1384.8 0C1338.7 0 1292.3 0 1246.2 0C1200 0 1154 0 1107.8 0C1061.7 0 1015.3 0 969.2 0C923 0 877 0 830.8 0C784.7 0 738.3 0 692.2 0C646 0 600 0 553.8 0C507.7 0 461.3 0 415.2 0C369 0 323 0 276.8 0C230.7 0 184.3 0 138.2 0C92 0 46 0 23 0L0 0Z" fill="#2d3748"></path><path d="M0 680L23 671.8C46 663.7 92 647.3 138.2 650C184.3 652.7 230.7 674.3 276.8 681.7C323 689 369 682 415.2 668.3C461.3 654.7 507.7 634.3 553.8 622.7C600 611 646 608 692.2 623C738.3 638 784.7 671 830.8 682.8C877 694.7 923 685.3 969.2 673.8C1015.3 662.3 1061.7 648.7 1107.8 635.8C1154 623 1200 611 1246.2 612.8C1292.3 614.7 1338.7 630.3 1384.8 643.2C1431 656 1477 666 1523.2 675C1569.3 684 1615.7 692 1661.8 681.8C1708 671.7 1754 643.3 1777 629.2L1800 615L1800 0L1777 0C1754 0 1708 0 1661.8 0C1615.7 0 1569.3 0 1523.2 0C1477 0 1431 0 1384.8 0C1338.7 0 1292.3 0 1246.2 0C1200 0 1154 0 1107.8 0C1061.7 0 1015.3 0 969.2 0C923 0 877 0 830.8 0C784.7 0 738.3 0 692.2 0C646 0 600 0 553.8 0C507.7 0 461.3 0 415.2 0C369 0 323 0 276.8 0C230.7 0 184.3 0 138.2 0C92 0 46 0 23 0L0 0Z" fill="#262f3f"></path><path d="M0 545L23 530.3C46 515.7 92 486.3 138.2 487.2C184.3 488 230.7 519 276.8 532C323 545 369 540 415.2 526.5C461.3 513 507.7 491 553.8 490.5C600 490 646 511 692.2 513.3C738.3 515.7 784.7 499.3 830.8 490.2C877 481 923 479 969.2 473.3C1015.3 467.7 1061.7 458.3 1107.8 455.2C1154 452 1200 455 1246.2 474.3C1292.3 493.7 1338.7 529.3 1384.8 532.7C1431 536 1477 507 1523.2 497.3C1569.3 487.7 1615.7 497.3 1661.8 503.7C1708 510 1754 513 1777 514.5L1800 516L1800 0L1777 0C1754 0 1708 0 1661.8 0C1615.7 0 1569.3 0 1523.2 0C1477 0 1431 0 1384.8 0C1338.7 0 1292.3 0 1246.2 0C1200 0 1154 0 1107.8 0C1061.7 0 1015.3 0 969.2 0C923 0 877 0 830.8 0C784.7 0 738.3 0 692.2 0C646 0 600 0 553.8 0C507.7 0 461.3 0 415.2 0C369 0 323 0 276.8 0C230.7 0 184.3 0 138.2 0C92 0 46 0 23 0L0 0Z" fill="#1f2836"></path><path d="M0 369L23 373.5C46 378 92 387 138.2 394.8C184.3 402.7 230.7 409.3 276.8 406.3C323 403.3 369 390.7 415.2 390.5C461.3 390.3 507.7 402.7 553.8 402.3C600 402 646 389 692.2 373.3C738.3 357.7 784.7 339.3 830.8 346.5C877 353.7 923 386.3 969.2 393.2C1015.3 400 1061.7 381 1107.8 366.3C1154 351.7 1200 341.3 1246.2 355.5C1292.3 369.7 1338.7 408.3 1384.8 418.2C1431 428 1477 409 1523.2 392.3C1569.3 375.7 1615.7 361.3 1661.8 352.3C1708 343.3 1754 339.7 1777 337.8L1800 336L1800 0L1777 0C1754 0 1708 0 1661.8 0C1615.7 0 1569.3 0 1523.2 0C1477 0 1431 0 1384.8 0C1338.7 0 1292.3 0 1246.2 0C1200 0 1154 0 1107.8 0C1061.7 0 1015.3 0 969.2 0C923 0 877 0 830.8 0C784.7 0 738.3 0 692.2 0C646 0 600 0 553.8 0C507.7 0 461.3 0 415.2 0C369 0 323 0 276.8 0C230.7 0 184.3 0 138.2 0C92 0 46 0 23 0L0 0Z" fill="#19202e"></path><path d="M0 305L23 287.5C46 270 92 235 138.2 225.5C184.3 216 230.7 232 276.8 250.5C323 269 369 290 415.2 285.2C461.3 280.3 507.7 249.7 553.8 247C600 244.3 646 269.7 692.2 274.3C738.3 279 784.7 263 830.8 246.2C877 229.3 923 211.7 969.2 216.2C1015.3 220.7 1061.7 247.3 1107.8 255.2C1154 263 1200 252 1246.2 245.2C1292.3 238.3 1338.7 235.7 1384.8 241.2C1431 246.7 1477 260.3 1523.2 273.3C1569.3 286.3 1615.7 298.7 1661.8 304.7C1708 310.7 1754 310.3 1777 310.2L1800 310L1800 0L1777 0C1754 0 1708 0 1661.8 0C1615.7 0 1569.3 0 1523.2 0C1477 0 1431 0 1384.8 0C1338.7 0 1292.3 0 1246.2 0C1200 0 1154 0 1107.8 0C1061.7 0 1015.3 0 969.2 0C923 0 877 0 830.8 0C784.7 0 738.3 0 692.2 0C646 0 600 0 553.8 0C507.7 0 461.3 0 415.2 0C369 0 323 0 276.8 0C230.7 0 184.3 0 138.2 0C92 0 46 0 23 0L0 0Z" fill="#121926"></path><path d="M0 151L23 154.2C46 157.3 92 163.7 138.2 166.5C184.3 169.3 230.7 168.7 276.8 152C323 135.3 369 102.7 415.2 98.5C461.3 94.3 507.7 118.7 553.8 129.2C600 139.7 646 136.3 692.2 127.3C738.3 118.3 784.7 103.7 830.8 94.5C877 85.3 923 81.7 969.2 82.3C1015.3 83 1061.7 88 1107.8 86.3C1154 84.7 1200 76.3 1246.2 76.5C1292.3 76.7 1338.7 85.3 1384.8 104C1431 122.7 1477 151.3 1523.2 151.2C1569.3 151 1615.7 122 1661.8 113.7C1708 105.3 1754 117.7 1777 123.8L1800 130L1800 0L1777 0C1754 0 1708 0 1661.8 0C1615.7 0 1569.3 0 1523.2 0C1477 0 1431 0 1384.8 0C1338.7 0 1292.3 0 1246.2 0C1200 0 1154 0 1107.8 0C1061.7 0 1015.3 0 969.2 0C923 0 877 0 830.8 0C784.7 0 738.3 0 692.2 0C646 0 600 0 553.8 0C507.7 0 461.3 0 415.2 0C369 0 323 0 276.8 0C230.7 0 184.3 0 138.2 0C92 0 46 0 23 0L0 0Z" fill="#0a121e"></path></svg>