<svg id="visual" viewBox="0 0 1800 900" width="1800" height="900" xmlns="http://www.w3.org/2000/svg" xmlns:xlink="http://www.w3.org/1999/xlink" version="1.1"><rect x="0" y="0" width="1800" height="900" fill="#0a121e"></rect><path d="M0 791L23 783.7C46 776.3 92 761.7 138.2 751C184.3 740.3 230.7 733.7 276.8 745.2C323 756.7 369 786.3 415.2 784.2C461.3 782 507.7 748 553.8 750.8C600 753.7 646 793.3 692.2 792.3C738.3 791.3 784.7 749.7 830.8 749.3C877 749 923 790 969.2 809.5C1015.3 829 1061.7 827 1107.8 813.7C1154 800.3 1200 775.7 1246.2 771.5C1292.3 767.3 1338.7 783.7 1384.8 791.5C1431 799.3 1477 798.7 1523.2 790.5C1569.3 782.3 1615.7 766.7 1661.8 751.7C1708 736.7 1754 722.3 1777 715.2L1800 708L1800 0L1777 0C1754 0 1708 0 1661.8 0C1615.7 0 1569.3 0 1523.2 0C1477 0 1431 0 1384.8 0C1338.7 0 1292.3 0 1246.2 0C1200 0 1154 0 1107.8 0C1061.7 0 1015.3 0 969.2 0C923 0 877 0 830.8 0C784.7 0 738.3 0 692.2 0C646 0 600 0 553.8 0C507.7 0 461.3 0 415.2 0C369 0 323 0 276.8 0C230.7 0 184.3 0 138.2 0C92 0 46 0 23 0L0 0Z" fill="#0a121e"></path><path d="M0 650L23 656.7C46 663.3 92 676.7 138.2 681.8C184.3 687 230.7 684 276.8 680.3C323 676.7 369 672.3 415.2 658.5C461.3 644.7 507.7 621.3 553.8 619.8C600 618.3 646 638.7 692.2 644.8C738.3 651 784.7 643 830.8 649.8C877 656.7 923 678.3 969.2 676.8C1015.3 675.3 1061.7 650.7 1107.8 633.5C1154 616.3 1200 606.7 1246.2 616.8C1292.3 627 1338.7 657 1384.8 672.8C1431 688.7 1477 690.3 1523.2 676.3C1569.3 662.3 1615.7 632.7 1661.8 617.2C1708 601.7 1754 600.3 1777 599.7L1800 599L1800 0L1777 0C1754 0 1708 0 1661.8 0C1615.7 0 1569.3 0 1523.2 0C1477 0 1431 0 1384.8 0C1338.7 0 1292.3 0 1246.2 0C1200 0 1154 0 1107.8 0C1061.7 0 1015.3 0 969.2 0C923 0 877 0 830.8 0C784.7 0 738.3 0 692.2 0C646 0 600 0 553.8 0C507.7 0 461.3 0 415.2 0C369 0 323 0 276.8 0C230.7 0 184.3 0 138.2 0C92 0 46 0 23 0L0 0Z" fill="#121926"></path><path d="M0 484L23 480.8C46 477.7 92 471.3 138.2 466.7C184.3 462 230.7 459 276.8 470.7C323 482.3 369 508.7 415.2 526.2C461.3 543.7 507.7 552.3 553.8 543.8C600 535.3 646 509.7 692.2 498.8C738.3 488 784.7 492 830.8 499.7C877 507.3 923 518.7 969.2 523.8C1015.3 529 1061.7 528 1107.8 516.2C1154 504.3 1200 481.7 1246.2 473C1292.3 464.3 1338.7 469.7 1384.8 471.8C1431 474 1477 473 1523.2 476.5C1569.3 480 1615.7 488 1661.8 499.7C1708 511.3 1754 526.7 1777 534.3L1800 542L1800 0L1777 0C1754 0 1708 0 1661.8 0C1615.7 0 1569.3 0 1523.2 0C1477 0 1431 0 1384.8 0C1338.7 0 1292.3 0 1246.2 0C1200 0 1154 0 1107.8 0C1061.7 0 1015.3 0 969.2 0C923 0 877 0 830.8 0C784.7 0 738.3 0 692.2 0C646 0 600 0 553.8 0C507.7 0 461.3 0 415.2 0C369 0 323 0 276.8 0C230.7 0 184.3 0 138.2 0C92 0 46 0 23 0L0 0Z" fill="#19202e"></path><path d="M0 346L23 354C46 362 92 378 138.2 380.5C184.3 383 230.7 372 276.8 367.8C323 363.7 369 366.3 415.2 378.3C461.3 390.3 507.7 411.7 553.8 415.5C600 419.3 646 405.7 692.2 389.2C738.3 372.7 784.7 353.3 830.8 357.2C877 361 923 388 969.2 396.8C1015.3 405.7 1061.7 396.3 1107.8 387.2C1154 378 1200 369 1246.2 364.8C1292.3 360.7 1338.7 361.3 1384.8 356.3C1431 351.3 1477 340.7 1523.2 346.5C1569.3 352.3 1615.7 374.7 1661.8 389.3C1708 404 1754 411 1777 414.5L1800 418L1800 0L1777 0C1754 0 1708 0 1661.8 0C1615.7 0 1569.3 0 1523.2 0C1477 0 1431 0 1384.8 0C1338.7 0 1292.3 0 1246.2 0C1200 0 1154 0 1107.8 0C1061.7 0 1015.3 0 969.2 0C923 0 877 0 830.8 0C784.7 0 738.3 0 692.2 0C646 0 600 0 553.8 0C507.7 0 461.3 0 415.2 0C369 0 323 0 276.8 0C230.7 0 184.3 0 138.2 0C92 0 46 0 23 0L0 0Z" fill="#1f2836"></path><path d="M0 197L23 198.8C46 200.7 92 204.3 138.2 207.3C184.3 210.3 230.7 212.7 276.8 216.8C323 221 369 227 415.2 239.5C461.3 252 507.7 271 553.8 267.2C600 263.3 646 236.7 692.2 230.8C738.3 225 784.7 240 830.8 249.7C877 259.3 923 263.7 969.2 261.3C1015.3 259 1061.7 250 1107.8 252.8C1154 255.7 1200 270.3 1246.2 272.3C1292.3 274.3 1338.7 263.7 1384.8 249.2C1431 234.7 1477 216.3 1523.2 218C1569.3 219.7 1615.7 241.3 1661.8 258.3C1708 275.3 1754 287.7 1777 293.8L1800 300L1800 0L1777 0C1754 0 1708 0 1661.8 0C1615.7 0 1569.3 0 1523.2 0C1477 0 1431 0 1384.8 0C1338.7 0 1292.3 0 1246.2 0C1200 0 1154 0 1107.8 0C1061.7 0 1015.3 0 969.2 0C923 0 877 0 830.8 0C784.7 0 738.3 0 692.2 0C646 0 600 0 553.8 0C507.7 0 461.3 0 415.2 0C369 0 323 0 276.8 0C230.7 0 184.3 0 138.2 0C92 0 46 0 23 0L0 0Z" fill="#262f3f"></path><path d="M0 78L23 88.8C46 99.7 92 121.3 138.2 134.7C184.3 148 230.7 153 276.8 143.7C323 134.3 369 110.7 415.2 101.8C461.3 93 507.7 99 553.8 99.7C600 100.3 646 95.7 692.2 93C738.3 90.3 784.7 89.7 830.8 101.7C877 113.7 923 138.3 969.2 139.8C1015.3 141.3 1061.7 119.7 1107.8 113.7C1154 107.7 1200 117.3 1246.2 114.2C1292.3 111 1338.7 95 1384.8 93.7C1431 92.3 1477 105.7 1523.2 109.2C1569.3 112.7 1615.7 106.3 1661.8 115.3C1708 124.3 1754 148.7 1777 160.8L1800 173L1800 0L1777 0C1754 0 1708 0 1661.8 0C1615.7 0 1569.3 0 1523.2 0C1477 0 1431 0 1384.8 0C1338.7 0 1292.3 0 1246.2 0C1200 0 1154 0 1107.8 0C1061.7 0 1015.3 0 969.2 0C923 0 877 0 830.8 0C784.7 0 738.3 0 692.2 0C646 0 600 0 553.8 0C507.7 0 461.3 0 415.2 0C369 0 323 0 276.8 0C230.7 0 184.3 0 138.2 0C92 0 46 0 23 0L0 0Z" fill="#2d3748"></path></svg>