<?xml version="1.0" encoding="UTF-8" standalone="no" ?>
<!DOCTYPE svg PUBLIC "-//W3C//DTD SVG 1.1//EN" "http://www.w3.org/Graphics/SVG/1.1/DTD/svg11.dtd">
<svg xmlns="http://www.w3.org/2000/svg" xmlns:xlink="http://www.w3.org/1999/xlink" version="1.1" width="500" height="500" viewBox="0 0 500 500" xml:space="preserve">
<desc>Created with Fabric.js 5.3.0</desc>
<defs>
</defs>
<g transform="matrix(1 0 0 1 193.3131465316 214.6025386148)" id="QB0xeykjK5S51rD-uhIjs"  >
<path style="stroke: rgb(40,41,178); stroke-width: 1; stroke-dasharray: none; stroke-linecap: butt; stroke-dashoffset: 0; stroke-linejoin: miter; stroke-miterlimit: 4; fill: rgb(255,255,255); fill-opacity: 0; fill-rule: nonzero; opacity: 1;" vector-effect="non-scaling-stroke"  transform=" translate(0, 0)" d="M 0 0 z" stroke-linecap="round" />
</g>
<g transform="matrix(2.3514822853 0 0 2.4298542161 249.7459954773 312.2072020222)" id="ymREqDEzC1TEN1C8aE9ML"  >
<path style="stroke: rgb(30,79,138); stroke-width: 0; stroke-dasharray: none; stroke-linecap: butt; stroke-dashoffset: 0; stroke-linejoin: miter; stroke-miterlimit: 4; fill: rgb(72,142,216); fill-rule: nonzero; opacity: 1;" vector-effect="non-scaling-stroke"  transform=" translate(0, 0)" d="M -53.89909 -67.82004 L -56.056760000000004 -56.35058000000001 L -56.465160000000004 -42.99002000000001 L -56.056760000000004 -32.382250000000006 L -53.89909 -24.21139000000001 L -47.88873 -15.206500000000009 L -40.39687 -8.933750000000009 L -29.64768 -3.167110000000009 L -15.9669 0.7416799999999912 L -4.59539 3.9990099999999913 L 4.7171400000000006 6.116269999999991 L 14.16339 9.04786999999999 L 20.96028 12.422439999999991 L 25.19481 17.145569999999992 L 26.986340000000002 23.497359999999993 L 25.19481 31.314949999999993 L 20.96028 35.38660999999999 L 12.97982 38.77656999999999 L 3.8592999999999993 40.568099999999994 L -5.912690000000001 40.568099999999994 L -15.033210000000002 39.753769999999996 L -27.085330000000003 36.98504 L -37.02018 33.401979999999995 L -45.000640000000004 28.678849999999994 L -52.32963 23.497359999999993 L -56.465160000000004 19.884059999999995 L -56.465160000000004 51.48300999999999 L -55.26122 52.83630999999999 L -45.00063 59.35096999999999 L -35.39151 63.42262999999999 L -23.176529999999996 66.35422999999999 L -11.775879999999995 67.82002999999999 L 2.0677700000000048 67.82002999999999 L 18.680150000000005 66.35422999999999 L 28.940740000000005 63.422629999999984 L 36.26973 59.35096999999998 L 43.92445 52.83630999999998 L 50.43911 43.715789999999984 L 54.67364 33.40197999999998 L 56.46517 23.497369999999982 L 56.46517 12.422449999999982 L 51.90491 -0.6562000000000179 L 46.20458 -8.933740000000018 L 36.269729999999996 -15.206490000000018 L 24.380479999999995 -19.06011000000002 L 7.442369999999993 -23.29464000000002 L -8.844270000000005 -27.366300000000017 L -15.033200000000004 -28.83210000000002 L -23.176520000000004 -33.06663000000002 L -27.085310000000003 -39.09269000000002 L -27.968840000000004 -44.90081000000002 L -27.085310000000003 -50.28234000000002 L -25.113190000000003 -53.70144000000002 L -23.176510000000004 -56.35059000000002 L -21.405870000000004 -56.96171000000002 z" stroke-linecap="round" />
</g>
<g transform="matrix(2.3482596606 -0.1271687439 0.123067074 2.4265241852 339.5406680239 181.8473543475)" id="gql66F490IZUSXQkM7ITc"  >
<path style="stroke: rgb(30,79,138); stroke-width: 0; stroke-dasharray: none; stroke-linecap: butt; stroke-dashoffset: 0; stroke-linejoin: miter; stroke-miterlimit: 4; fill: rgb(72,142,216); fill-rule: nonzero; opacity: 1;" vector-effect="non-scaling-stroke"  transform=" translate(0, 0)" d="M -15.75336 -4.16106 L -8.00561 -6.02292 L -0.8584600000000009 -8.3052 L 6.649049999999999 -10.64754 L 16.17378 -13.676779999999999 L 13.25566 13.676790000000002 L 10.97338 10.793910000000002 L 6.16858 6.529650000000002 L 0.7031100000000006 3.406530000000002 L -5.603199999999999 0.04317000000000171 L -10.88849 -1.7707499999999983 L -16.17378 -3.8607299999999984 z" stroke-linecap="round" />
</g>
<g transform="matrix(2.0677647589 0 0 1.7595027923 250 98.2349344799)" id="8MKXQy_nJR1Pdq9QCUPPn"  >
<path style="stroke: rgb(30,79,138); stroke-width: 0; stroke-dasharray: none; stroke-linecap: butt; stroke-dashoffset: 0; stroke-linejoin: miter; stroke-miterlimit: 4; fill: rgb(13,20,54); fill-rule: nonzero; opacity: 1;" vector-effect="non-scaling-stroke"  transform=" translate(0, 0)" d="M -115.9387 -0.07991 L -102.31506 -5.02548 L -1.1487500000000068 -48.122530000000005 L 115.93869 -0.07991000000000525 L 0.6405499999999904 48.12253 z" stroke-linecap="round" />
</g>
<g transform="matrix(4.7769301978 0 0 4.9361392401 50.4686374385 178.3565364822)" id="RBnUAmIBYWw6p0ePFEe8L"  >
<path style="stroke: rgb(30,79,138); stroke-width: 0; stroke-dasharray: none; stroke-linecap: butt; stroke-dashoffset: 0; stroke-linejoin: miter; stroke-miterlimit: 4; fill: rgb(227,181,5); fill-rule: nonzero; opacity: 1;" vector-effect="non-scaling-stroke"  transform=" translate(0, 0)" d="M -3.6572 -13.42772 L -4.16805 11.428090000000001 L -4.16805 11.428090000000001 C -4.17584 11.80733 -3.92836 12.147580000000001 -3.55683 12.26843 L 0.007249999999999979 13.42772 L 3.49638 12.042150000000001 L 3.49638 12.042150000000001 C 3.91459 11.876070000000002 4.18222 11.476080000000001 4.16767 11.03883 L 3.44336 -10.7331 z" stroke-linecap="round" />
</g>
</svg>